<svg id="Calque_1" data-name="Calque 1" xmlns="http://www.w3.org/2000/svg" viewBox="0 0 540 540">
    <defs>
        <style>.cls-1,.cls-3{fill:#f7931e;}.cls-2{fill:#808080;}.cls-3{opacity:0.25;}.cls-4{fill:#f7821e;}</style>
    </defs>
    <title>leve</title>
    <path class="cls-1" d="M215,376H325a7,7,0,0,1,5,12l-55,55a7,7,0,0,1-10,0l-55-55A7,7,0,0,1,215,376Z"/>
    <path class="cls-2" d="M54,324H486a2600.82,2600.82,0,0,1-432,0Z"/>
    <path class="cls-3" d="M270,108h0A216,216,0,0,1,486,324v0a0,0,0,0,1,0,0H54a0,0,0,0,1,0,0v0A216,216,0,0,1,270,108Z"/>
    <path class="cls-3" d="M270,126h0A198,198,0,0,1,468,324v0a0,0,0,0,1,0,0H72a0,0,0,0,1,0,0v0A198,198,0,0,1,270,126Z"/>
    <path class="cls-3" d="M270,144h0A180,180,0,0,1,450,324v0a0,0,0,0,1,0,0H90a0,0,0,0,1,0,0v0A180,180,0,0,1,270,144Z"/>
    <path class="cls-4" d="M270,180A144,144,0,0,0,126,324H414A144,144,0,0,0,270,180Z"/>
</svg>