<svg id="Calque_1" data-name="Calque 1" xmlns="http://www.w3.org/2000/svg" viewBox="0 0 540 540">
    <defs>
        <style>
            .cls-3{fill:#0071bc;}.cls-2{fill:#808080;}.cls-3,.cls-4{opacity:0.25;}.cls-1,.cls-4,.cls-5{fill:#f7821e;}
        </style>
    </defs>
    <title>couche</title>
    <path class="cls-1" d="M325,445.08H215a7,7,0,0,1-5-12l55-55a7,7,0,0,1,10,0l55,55A7,7,0,0,1,325,445.08Z"/>
    <path class="cls-2" d="M54,324H486a2600.82,2600.82,0,0,1-432,0Z"/>
    <path class="cls-3"
          d="M473.69,324A215.63,215.63,0,0,0,486,252c0-119.29-96.71-216-216-216S54,132.71,54,252a215.63,215.63,0,0,0,12.31,72Z"/>
    <path class="cls-4"
          d="M454.49,324A197.42,197.42,0,0,0,468,252c0-109.35-88.65-198-198-198S72,142.65,72,252a197.42,197.42,0,0,0,13.51,72Z"/>
    <path class="cls-4" d="M435,324a180,180,0,1,0-330,0Z"/>
    <path class="cls-5" d="M394.73,324a144,144,0,1,0-249.46,0Z"/>
</svg>