<svg id="Calque_1" data-name="Calque 1" xmlns="http://www.w3.org/2000/svg" viewBox="0 0 666 216"><defs><style>.cls-1,.cls-2,.cls-3,.cls-4{fill:#f15a24;}.cls-1{opacity:0.04;}.cls-2{opacity:0.1;}.cls-3{opacity:0.25;}.cls-5{fill:#fff;}</style></defs><title>logo</title><circle class="cls-1" cx="558" cy="108" r="108"/><circle class="cls-2" cx="558" cy="108" r="99"/><circle class="cls-2" cx="558" cy="108" r="90"/><circle class="cls-3" cx="558" cy="108" r="81"/><circle class="cls-3" cx="558" cy="108" r="72"/><circle class="cls-4" cx="558" cy="108" r="63"/><path class="cls-5" d="M288,459h31l20.41,56c2.52,7.44,4.73,15.51,7.25,23.27h.77c2.52-7.76,4.65-15.83,7.17-23.27l19.79-56h31V585h-25.9V538.76c0-12.28,2.29-30.62,3.63-42.81h-.77L372.1,525.77,354.31,574H338.52l-17.83-48.27-10-29.82h-.77c1.34,12.19,3.64,30.53,3.64,42.81V585H288Z" transform="translate(-288 -414)"/><path class="cls-5" d="M574.63,482.89H540V459h97.72v23.89H603.08V585H574.63Z" transform="translate(-288 -414)"/><rect class="cls-5" x="144" y="45" width="81" height="27"/><rect class="cls-5" x="144" y="94.5" width="81" height="27"/><rect class="cls-5" x="144" y="144" width="81" height="27"/><rect class="cls-5" x="378" y="45" width="81" height="27"/><rect class="cls-5" x="378" y="94.5" width="81" height="27"/><rect class="cls-5" x="378" y="144" width="81" height="27"/></svg>